<mxfile host="app.diagrams.net" modified="2021-10-19T15:38:17.437Z" agent="5.0 (Macintosh; Intel Mac OS X 10_15_7) AppleWebKit/537.36 (KHTML, like Gecko) Chrome/94.0.4606.81 Safari/537.36" etag="-thQyXGwwlaWcbhfuVx3" version="15.4.1" type="github">
  <diagram id="kgpKYQtTHZ0yAKxKKP6v" name="Page-1">
    <mxGraphModel dx="946" dy="589" grid="1" gridSize="10" guides="1" tooltips="1" connect="1" arrows="1" fold="1" page="1" pageScale="1" pageWidth="850" pageHeight="1100" math="0" shadow="0">
      <root>
        <mxCell id="0" />
        <mxCell id="1" parent="0" />
        <mxCell id="_xVWSL3DDWVsicqcpz_Q-39" style="edgeStyle=orthogonalEdgeStyle;rounded=0;orthogonalLoop=1;jettySize=auto;html=1;exitX=0.5;exitY=0;exitDx=0;exitDy=0;entryX=0;entryY=0.3333333333333333;entryDx=0;entryDy=0;entryPerimeter=0;" edge="1" parent="1" source="_xVWSL3DDWVsicqcpz_Q-35" target="_xVWSL3DDWVsicqcpz_Q-4">
          <mxGeometry relative="1" as="geometry" />
        </mxCell>
        <mxCell id="_xVWSL3DDWVsicqcpz_Q-41" style="edgeStyle=orthogonalEdgeStyle;rounded=0;orthogonalLoop=1;jettySize=auto;html=1;exitX=0.5;exitY=1;exitDx=0;exitDy=0;entryX=0;entryY=0.3333333333333333;entryDx=0;entryDy=0;entryPerimeter=0;" edge="1" parent="1" source="_xVWSL3DDWVsicqcpz_Q-35" target="_xVWSL3DDWVsicqcpz_Q-20">
          <mxGeometry relative="1" as="geometry">
            <mxPoint x="410" y="260" as="targetPoint" />
          </mxGeometry>
        </mxCell>
        <mxCell id="_xVWSL3DDWVsicqcpz_Q-35" value="" style="ellipse;whiteSpace=wrap;html=1;" vertex="1" parent="1">
          <mxGeometry x="250" y="200" width="60" height="40" as="geometry" />
        </mxCell>
        <mxCell id="_xVWSL3DDWVsicqcpz_Q-45" style="edgeStyle=orthogonalEdgeStyle;rounded=0;orthogonalLoop=1;jettySize=auto;html=1;exitX=0.5;exitY=0.5;exitDx=0;exitDy=0;exitPerimeter=0;entryX=0;entryY=0.5;entryDx=0;entryDy=0;" edge="1" parent="1" source="_xVWSL3DDWVsicqcpz_Q-2" target="_xVWSL3DDWVsicqcpz_Q-37">
          <mxGeometry relative="1" as="geometry" />
        </mxCell>
        <mxCell id="_xVWSL3DDWVsicqcpz_Q-2" value="Author" style="shape=umlActor;verticalLabelPosition=bottom;verticalAlign=top;html=1;outlineConnect=0;" vertex="1" parent="1">
          <mxGeometry x="70" y="190" width="30" height="60" as="geometry" />
        </mxCell>
        <mxCell id="_xVWSL3DDWVsicqcpz_Q-3" value="Editor" style="shape=umlActor;verticalLabelPosition=bottom;verticalAlign=top;html=1;outlineConnect=0;" vertex="1" parent="1">
          <mxGeometry x="200" y="140" width="30" height="60" as="geometry" />
        </mxCell>
        <mxCell id="_xVWSL3DDWVsicqcpz_Q-42" style="edgeStyle=orthogonalEdgeStyle;rounded=0;orthogonalLoop=1;jettySize=auto;html=1;exitX=0.5;exitY=0.5;exitDx=0;exitDy=0;exitPerimeter=0;entryX=1;entryY=0.5;entryDx=0;entryDy=0;" edge="1" parent="1" source="_xVWSL3DDWVsicqcpz_Q-4" target="_xVWSL3DDWVsicqcpz_Q-37">
          <mxGeometry relative="1" as="geometry" />
        </mxCell>
        <mxCell id="_xVWSL3DDWVsicqcpz_Q-4" value="Reviewer 1" style="shape=umlActor;verticalLabelPosition=bottom;verticalAlign=top;html=1;outlineConnect=0;" vertex="1" parent="1">
          <mxGeometry x="410" y="60" width="30" height="60" as="geometry" />
        </mxCell>
        <mxCell id="_xVWSL3DDWVsicqcpz_Q-43" style="edgeStyle=orthogonalEdgeStyle;rounded=0;orthogonalLoop=1;jettySize=auto;html=1;exitX=0.5;exitY=0.5;exitDx=0;exitDy=0;exitPerimeter=0;" edge="1" parent="1" source="_xVWSL3DDWVsicqcpz_Q-20">
          <mxGeometry relative="1" as="geometry">
            <mxPoint x="310" y="220" as="targetPoint" />
            <Array as="points">
              <mxPoint x="360" y="330" />
              <mxPoint x="360" y="220" />
            </Array>
          </mxGeometry>
        </mxCell>
        <mxCell id="_xVWSL3DDWVsicqcpz_Q-20" value="Reviewer 2" style="shape=umlActor;verticalLabelPosition=bottom;verticalAlign=top;html=1;outlineConnect=0;" vertex="1" parent="1">
          <mxGeometry x="410" y="300" width="30" height="60" as="geometry" />
        </mxCell>
        <mxCell id="_xVWSL3DDWVsicqcpz_Q-46" style="edgeStyle=orthogonalEdgeStyle;rounded=0;orthogonalLoop=1;jettySize=auto;html=1;exitX=0.25;exitY=1;exitDx=0;exitDy=0;entryX=0.5;entryY=0.5;entryDx=0;entryDy=0;entryPerimeter=0;" edge="1" parent="1" source="_xVWSL3DDWVsicqcpz_Q-37" target="_xVWSL3DDWVsicqcpz_Q-2">
          <mxGeometry relative="1" as="geometry" />
        </mxCell>
        <mxCell id="_xVWSL3DDWVsicqcpz_Q-37" value="Editor&lt;br&gt;Review" style="text;html=1;strokeColor=none;fillColor=none;align=center;verticalAlign=middle;whiteSpace=wrap;rounded=0;" vertex="1" parent="1">
          <mxGeometry x="250" y="205" width="60" height="30" as="geometry" />
        </mxCell>
        <mxCell id="_xVWSL3DDWVsicqcpz_Q-47" value="Editor" style="shape=umlActor;verticalLabelPosition=bottom;verticalAlign=top;html=1;outlineConnect=0;" vertex="1" parent="1">
          <mxGeometry x="303" y="430" width="30" height="60" as="geometry" />
        </mxCell>
        <mxCell id="_xVWSL3DDWVsicqcpz_Q-48" value="Reviewer 1" style="shape=umlActor;verticalLabelPosition=bottom;verticalAlign=top;html=1;outlineConnect=0;" vertex="1" parent="1">
          <mxGeometry x="440" y="430" width="30" height="60" as="geometry" />
        </mxCell>
        <mxCell id="_xVWSL3DDWVsicqcpz_Q-49" value="Author" style="shape=umlActor;verticalLabelPosition=bottom;verticalAlign=top;html=1;outlineConnect=0;" vertex="1" parent="1">
          <mxGeometry x="130" y="430" width="30" height="60" as="geometry" />
        </mxCell>
        <mxCell id="_xVWSL3DDWVsicqcpz_Q-50" value="Reviewer2" style="shape=umlActor;verticalLabelPosition=bottom;verticalAlign=top;html=1;outlineConnect=0;" vertex="1" parent="1">
          <mxGeometry x="510" y="430" width="30" height="60" as="geometry" />
        </mxCell>
        <mxCell id="_xVWSL3DDWVsicqcpz_Q-68" value="" style="curved=1;endArrow=classic;html=1;rounded=0;edgeStyle=orthogonalEdgeStyle;" edge="1" parent="1">
          <mxGeometry width="50" height="50" relative="1" as="geometry">
            <mxPoint x="340" y="450" as="sourcePoint" />
            <mxPoint x="490" y="430" as="targetPoint" />
            <Array as="points">
              <mxPoint x="340" y="410" />
            </Array>
          </mxGeometry>
        </mxCell>
        <mxCell id="_xVWSL3DDWVsicqcpz_Q-69" value="" style="curved=1;endArrow=classic;html=1;rounded=0;edgeStyle=orthogonalEdgeStyle;" edge="1" parent="1">
          <mxGeometry width="50" height="50" relative="1" as="geometry">
            <mxPoint x="490" y="520" as="sourcePoint" />
            <mxPoint x="345" y="490" as="targetPoint" />
            <Array as="points">
              <mxPoint x="360" y="540" />
              <mxPoint x="360" y="490" />
            </Array>
          </mxGeometry>
        </mxCell>
        <mxCell id="_xVWSL3DDWVsicqcpz_Q-71" value="" style="endArrow=classic;html=1;rounded=0;edgeStyle=orthogonalEdgeStyle;" edge="1" parent="1" target="_xVWSL3DDWVsicqcpz_Q-47">
          <mxGeometry relative="1" as="geometry">
            <mxPoint x="160" y="459.5" as="sourcePoint" />
            <mxPoint x="260" y="459.5" as="targetPoint" />
          </mxGeometry>
        </mxCell>
        <mxCell id="_xVWSL3DDWVsicqcpz_Q-72" value="" style="shape=message;html=1;outlineConnect=0;" vertex="1" parent="_xVWSL3DDWVsicqcpz_Q-71">
          <mxGeometry width="20" height="14" relative="1" as="geometry">
            <mxPoint x="-10" y="-7" as="offset" />
          </mxGeometry>
        </mxCell>
        <mxCell id="_xVWSL3DDWVsicqcpz_Q-73" value="" style="shape=message;html=1;outlineConnect=0;" vertex="1" parent="1">
          <mxGeometry x="415" y="530" width="20" height="14" as="geometry" />
        </mxCell>
        <mxCell id="_xVWSL3DDWVsicqcpz_Q-74" value="" style="shape=message;html=1;outlineConnect=0;" vertex="1" parent="1">
          <mxGeometry x="410" y="400" width="20" height="14" as="geometry" />
        </mxCell>
        <mxCell id="_xVWSL3DDWVsicqcpz_Q-81" value="" style="endArrow=classic;html=1;rounded=0;edgeStyle=orthogonalEdgeStyle;" edge="1" parent="1">
          <mxGeometry relative="1" as="geometry">
            <mxPoint x="290" y="490" as="sourcePoint" />
            <mxPoint x="170" y="490" as="targetPoint" />
            <Array as="points">
              <mxPoint x="290" y="490" />
              <mxPoint x="170" y="490" />
            </Array>
          </mxGeometry>
        </mxCell>
        <mxCell id="_xVWSL3DDWVsicqcpz_Q-82" value="" style="shape=message;html=1;outlineConnect=0;" vertex="1" parent="_xVWSL3DDWVsicqcpz_Q-81">
          <mxGeometry width="20" height="14" relative="1" as="geometry">
            <mxPoint x="-10" y="-7" as="offset" />
          </mxGeometry>
        </mxCell>
        <mxCell id="_xVWSL3DDWVsicqcpz_Q-83" value="" style="curved=1;endArrow=classic;html=1;rounded=0;edgeStyle=orthogonalEdgeStyle;" edge="1" parent="1">
          <mxGeometry width="50" height="50" relative="1" as="geometry">
            <mxPoint x="530" y="520" as="sourcePoint" />
            <mxPoint x="340" y="500" as="targetPoint" />
            <Array as="points">
              <mxPoint x="530" y="560" />
              <mxPoint x="355" y="560" />
              <mxPoint x="355" y="500" />
            </Array>
          </mxGeometry>
        </mxCell>
        <mxCell id="_xVWSL3DDWVsicqcpz_Q-84" value="" style="shape=message;html=1;outlineConnect=0;" vertex="1" parent="1">
          <mxGeometry x="435" y="550" width="20" height="14" as="geometry" />
        </mxCell>
      </root>
    </mxGraphModel>
  </diagram>
</mxfile>
